<svg role="img" viewBox="0 0 124 124" xmlns="http://www.w3.org/2000/svg"><title>C# icon</title><path fill="#9B4F96" d="m113.584344,28.61305l-48.42612,-27.872591c-0.802089,-0.501306 -1.904961,-0.701828 -3.108095,-0.701828c-1.203133,0 -2.306006,0.300783 -3.108095,0.701828l-48.125336,27.972852c-1.704439,1.002611 -2.907572,3.509139 -2.907572,5.4141l0,55.845442c0,1.102872 0.200522,2.406267 1.002611,3.509139l107.078873,-62.161893c-0.601567,-1.203133 -1.503917,-2.105483 -2.406267,-2.70705z"/><path fill="#68217A" d="m8.610954,93.381731c0.501306,0.802089 1.203133,1.503917 1.904961,1.904961l48.325858,27.972852c0.802089,0.501306 1.904961,0.701828 3.108095,0.701828c1.203133,0 2.306006,-0.300783 3.108095,-0.701828l48.125336,-27.972852c1.704439,-1.002611 2.907572,-3.509139 2.907572,-5.4141l0,-55.845442c0,-0.90235 -0.100261,-1.904961 -0.601567,-2.807311l-106.878351,62.161893z"/><path fill="#ffffff" d="m83.405748,74.131597c-4.210967,7.419323 -12.231856,12.432379 -21.355618,12.432379c-13.535251,0 -24.563974,-11.028723 -24.563974,-24.563974s11.028723,-24.563974 24.563974,-24.563974c9.123762,0 17.144651,5.013056 21.355618,12.53264l13.033945,-7.519584c-6.817756,-11.931073 -19.651179,-20.052223 -34.389563,-20.052223c-21.856924,0 -39.603141,17.746218 -39.603141,39.603141s17.746218,39.603141 39.603141,39.603141c14.638123,0 27.471546,-8.020889 34.289302,-19.851701l-12.933684,-7.619845zm11.730551,-9.925851l0.90235,-4.311228l-4.210967,0l0,-4.712272l5.113317,0l1.203133,-6.216189l4.912795,0l-1.203133,6.115928l3.809922,0l1.203133,-6.115928l4.812534,0l-1.203133,6.115928l2.406267,0l0,4.712272l-3.308617,0l-0.90235,4.311228l4.210967,0l0,4.712272l-5.113317,0l-1.203133,6.015667l-4.912795,0l1.203133,-6.015667l-3.809922,0l-1.203133,6.015667l-4.812534,0l1.203133,-6.015667l-2.406267,0l0,-4.712272l3.308617,0l0,0.100261zm4.812534,-0.100261l3.809922,0l0.90235,-4.311228l-3.809922,0l-0.90235,4.311228z"/></svg>