<svg role="img" viewBox="0 0 124 124" xmlns="http://www.w3.org/2000/svg"><title>Python icon</title><path fill="#3c76a5" d="m48.754873,0.128061c-9.776235,0 -17.692511,7.916276 -17.692511,17.692511l0,10.393128l26.538766,0c2.413121,0 4.398935,3.532686 4.398935,5.945807l-44.182396,0c-9.776235,0 -17.692511,7.916276 -17.692511,17.692511l0,23.39614c0,9.776235 7.916276,17.692511 17.692511,17.692511l7.299383,0l0,-16.580619c0,-9.776235 7.868013,-17.692511 17.644248,-17.692511l32.484326,0c9.776235,0 17.692511,-7.868013 17.692511,-17.644248l0,-23.20309c0,-9.776235 -7.916276,-17.692511 -17.692511,-17.692511l-26.490751,0.000371zm-4.447259,9.958147c2.474996,0 4.447259,0.748315 4.447259,4.398935s-1.972263,5.510703 -4.447259,5.510703c-2.413121,0 -4.398935,-1.860083 -4.398935,-5.510703s1.985813,-4.398935 4.398935,-4.398935z"/><path fill="#fdd835" d="m98.871072,31.059945l0,16.580619c0,9.776235 -7.855638,17.692511 -17.631873,17.692511l-32.484326,0c-9.776235,0 -17.692511,7.855638 -17.692511,17.631873l0,23.20309a17.696223,17.696223 0 0 0 17.692511,17.704267l26.489885,0a17.696223,17.696223 0 0 0 17.692511,-17.704267l0,-10.393128l-26.550522,0c-2.413121,0 -4.386807,-3.520558 -4.386807,-5.93368l44.182396,0a17.696223,17.696223 0 0 0 17.692511,-17.704267l0,-23.384383a17.696223,17.696223 0 0 0 -17.692511,-17.692511l-7.311263,-0.000124zm-59.639366,27.928476l-0.024131,0.024131c0.074126,-0.01485 0.15512,-0.0099 0.229618,-0.024131l-0.205487,0zm40.46062,45.016469c2.413121,0 4.398935,1.860083 4.398935,5.510703a4.393118,4.393118 0 0 1 -4.398935,4.386807c-2.474996,0 -4.447259,-0.736188 -4.447259,-4.386807s1.972263,-5.510703 4.447259,-5.510703z"/></svg>